<svg width="32" height="32" viewBox="0 0 32 32" fill="none" xmlns="http://www.w3.org/2000/svg">
  <rect width="32" height="32" rx="6" fill="url(#gradient)"/>
  <path d="M9 7H7a2 2 0 00-2 2v14a2 2 0 002 2h12a2 2 0 002-2V9a2 2 0 00-2-2h-2M9 7a2 2 0 002 2h4a2 2 0 002-2M9 7a2 2 0 012-2h4a2 2 0 012 2m-3 10h4m-4 4h4m-8-4h.01M9 21h.01"
        stroke="white"
        stroke-width="2"
        stroke-linecap="round"
        stroke-linejoin="round"/>
  <defs>
    <linearGradient id="gradient" x1="0%" y1="0%" x2="100%" y2="100%">
      <stop offset="0%" style="stop-color:#6366f1"/>
      <stop offset="100%" style="stop-color:#8b5cf6"/>
    </linearGradient>
  </defs>
</svg>